<svg width="36" height="36" viewBox="0 0 36 36" fill="none" xmlns="http://www.w3.org/2000/svg">
<rect x="0.5" y="0.5" width="35" height="35" rx="4.5" stroke="#828A9E"/>
<path d="M13.0606 20.8454L13.0606 20.8454L13.1957 20.6976C13.1428 20.7555 13.0982 20.8043 13.0606 20.8454ZM13.0603 20.8457C13.0603 20.8457 13.0603 20.8457 13.0603 20.8457C13.0195 20.8903 12.987 20.9259 12.9611 20.9543C12.9606 20.9548 12.9602 20.9553 12.9597 20.9558C12.9591 20.9565 12.9584 20.9572 12.9578 20.9579C12.9569 20.9588 12.9561 20.9598 12.9553 20.9607C12.9328 20.9853 12.9155 21.0042 12.9023 21.0187L12.9044 21.0162L12.9553 20.9606L12.9577 20.9579L12.9597 20.9557L12.961 20.9543L13.0603 20.8457ZM12.8673 21.0569L12.904 21.0166C12.9033 21.0175 12.9026 21.0183 12.9019 21.0191C12.88 21.0431 12.8691 21.055 12.8638 21.0609C12.8595 21.0657 12.8587 21.0666 12.8586 21.0668C12.8585 21.0667 12.8584 21.0667 12.8584 21.0666L12.8673 21.0569ZM23.1403 21.0678L23.1408 21.0674L23.1412 21.067L23.1415 21.0668C23.1415 21.0668 23.1416 21.0667 23.0981 21.0191C23.0767 20.9944 23.0582 20.9731 23.0423 20.9547C22.9442 20.8415 22.9442 20.8415 22.9443 20.8414L22.9445 20.8413L22.9447 20.8411L22.9451 20.8407L22.9455 20.8404C22.9455 20.8404 22.945 20.8408 22.9441 20.8415L22.9394 20.8454C22.9018 20.8043 22.8572 20.7555 22.8043 20.6976C22.9483 20.5685 23.1698 20.5808 23.2989 20.7248C23.4279 20.8688 23.4157 21.0903 23.2717 21.2193L23.1403 21.0678ZM22.9379 20.8467L22.9335 20.8504C22.9228 20.859 22.9052 20.8732 22.8806 20.892C22.8314 20.9297 22.7546 20.9859 22.6513 21.0542C22.4447 21.1907 22.1329 21.3747 21.7236 21.5547L22.9379 20.8467ZM25.9564 21.5672C25.9863 21.5142 26.0013 21.4544 25.9999 21.3932L21.5543 23.828C21.9633 23.8144 22.769 23.6785 23.6412 23.3389C24.5135 22.9992 25.4483 22.4598 25.9564 21.5672Z" fill="#4E505F" stroke="#828A9E"/>
</svg>
