<svg width="36" height="36" viewBox="0 0 36 36" fill="none" xmlns="http://www.w3.org/2000/svg">
<rect x="0.5" y="0.5" width="35" height="35" rx="4.5" stroke="#828A9E"/>
<path d="M25.619 8H10.381C9.06667 8 8 9.06667 8 10.381V25.619C8 26.9333 9.06667 28 10.381 28H25.619C26.9333 28 28 26.9333 28 25.619V10.381C28 9.06667 26.9333 8 25.619 8ZM23.7143 15.1429H22.7619C21.7429 15.1429 21.3333 15.381 21.3333 16.0952V17.5238H23.7143L23.2381 19.9048H21.3333V27.0476H18.9524V19.9048H17.0476V17.5238H18.9524V16.0952C18.9524 14.1905 19.9048 12.7619 21.8095 12.7619C23.1905 12.7619 23.7143 13.2381 23.7143 13.2381V15.1429Z" fill="#828A9E"/>
</svg>
