<svg width="36" height="36" viewBox="0 0 36 36" fill="none" xmlns="http://www.w3.org/2000/svg">
<rect x="0.5" y="0.5" width="35" height="35" rx="4.5" stroke="#828A9E"/>
<path d="M17.9184 9C14.2422 9 10.79 9.28125 8.95187 9.67456C7.72718 9.95581 6.66781 10.7996 6.44593 12.0938C6.22406 13.4429 6 15.4688 6 18C6 20.5312 6.22188 22.5 6.50032 23.9062C6.72437 25.1433 7.78156 26.0442 9.00625 26.3254C10.9575 26.7188 14.2966 27 17.9728 27C21.6491 27 24.9881 26.7188 26.9372 26.3254C28.1641 26.0442 29.2212 25.2004 29.4431 23.9062C29.6672 22.5 29.9456 20.4763 30 17.9451C30 15.4138 29.7216 13.3879 29.4431 11.9817C29.2212 10.7446 28.1641 9.84375 26.9372 9.5625C24.9881 9.28125 21.5925 9 17.9184 9ZM17.9184 10.125C21.9275 10.125 25.1556 10.4612 26.7153 10.7424C27.5506 10.9688 28.2184 11.5313 28.3294 12.2629C28.6644 14.0625 28.8862 15.9763 28.8862 17.9451C28.8319 20.3621 28.5534 22.3308 28.3294 23.7371C28.1641 24.8049 27.0503 25.1433 26.7153 25.2576C24.7097 25.6509 21.3684 25.9299 18.0272 25.9299C14.6859 25.9299 11.2903 25.7058 9.34125 25.2576C8.50594 25.0312 7.83812 24.4687 7.72718 23.7371C7.28125 22.1616 7.11375 20.0808 7.11375 18C7.11375 15.4116 7.3378 13.5 7.55968 12.3201C7.72718 11.25 8.89531 10.9116 9.17375 10.7996C11.0119 10.4062 14.4097 10.125 17.9184 10.125ZM14.91 13.5V22.5L22.7062 18L14.91 13.5ZM16.0237 15.4138L20.4787 18L16.0237 20.5862V15.4138Z" fill="#828A9E"/>
</svg>
