<svg width="20" height="21" viewBox="0 0 20 21" fill="none" xmlns="http://www.w3.org/2000/svg">
<path d="M1.6665 10.304C1.6665 7.13614 1.6665 5.55222 2.64281 4.5681C3.61913 3.58398 5.19047 3.58398 8.33317 3.58398H11.6665C14.8092 3.58398 16.3806 3.58398 17.3568 4.5681C18.3332 5.55222 18.3332 7.13614 18.3332 10.304V11.984C18.3332 15.1518 18.3332 16.7357 17.3568 17.7199C16.3806 18.704 14.8092 18.704 11.6665 18.704H8.33317C5.19047 18.704 3.61913 18.704 2.64281 17.7199C1.6665 16.7357 1.6665 15.1518 1.6665 11.984V10.304Z" stroke="#C0C4D0" stroke-width="1.5"/>
<path d="M5.8335 3.58397V2.32397" stroke="#C0C4D0" stroke-width="1.5" stroke-linecap="round"/>
<path d="M14.1665 3.58397V2.32397" stroke="#C0C4D0" stroke-width="1.5" stroke-linecap="round"/>
<path d="M2.0835 7.784H17.9168" stroke="#C0C4D0" stroke-width="1.5" stroke-linecap="round"/>
<path d="M15.0002 14.504C15.0002 14.9679 14.6271 15.344 14.1668 15.344C13.7066 15.344 13.3335 14.9679 13.3335 14.504C13.3335 14.0401 13.7066 13.664 14.1668 13.664C14.6271 13.664 15.0002 14.0401 15.0002 14.504Z" fill="#C0C4D0"/>
<path d="M15.0002 11.144C15.0002 11.6079 14.6271 11.984 14.1668 11.984C13.7066 11.984 13.3335 11.6079 13.3335 11.144C13.3335 10.6801 13.7066 10.304 14.1668 10.304C14.6271 10.304 15.0002 10.6801 15.0002 11.144Z" fill="#C0C4D0"/>
<path d="M10.8332 14.504C10.8332 14.9679 10.4601 15.344 9.99984 15.344C9.53959 15.344 9.1665 14.9679 9.1665 14.504C9.1665 14.0401 9.53959 13.664 9.99984 13.664C10.4601 13.664 10.8332 14.0401 10.8332 14.504Z" fill="#C0C4D0"/>
<path d="M10.8332 11.144C10.8332 11.6079 10.4601 11.984 9.99984 11.984C9.53959 11.984 9.1665 11.6079 9.1665 11.144C9.1665 10.6801 9.53959 10.304 9.99984 10.304C10.4601 10.304 10.8332 10.6801 10.8332 11.144Z" fill="#C0C4D0"/>
<path d="M6.66667 14.504C6.66667 14.9679 6.29357 15.344 5.83333 15.344C5.3731 15.344 5 14.9679 5 14.504C5 14.0401 5.3731 13.664 5.83333 13.664C6.29357 13.664 6.66667 14.0401 6.66667 14.504Z" fill="#C0C4D0"/>
<path d="M6.66667 11.144C6.66667 11.6079 6.29357 11.984 5.83333 11.984C5.3731 11.984 5 11.6079 5 11.144C5 10.6801 5.3731 10.304 5.83333 10.304C6.29357 10.304 6.66667 10.6801 6.66667 11.144Z" fill="#C0C4D0"/>
</svg>
