<svg width="20" height="21" viewBox="0 0 20 21" fill="none" xmlns="http://www.w3.org/2000/svg">
<path d="M2.58663 12.9498C1.91527 12.0665 1.57959 11.6248 1.57959 10.3134C1.57959 9.00183 1.91527 8.56015 2.58663 7.67679C3.92716 5.91298 6.17535 3.91333 9.47866 3.91333C12.782 3.91333 15.0301 5.91297 16.3707 7.67679C17.042 8.56015 17.3777 9.00183 17.3777 10.3134C17.3777 11.6248 17.042 12.0665 16.3707 12.9498C15.0301 14.7137 12.782 16.7134 9.47866 16.7134C6.17535 16.7134 3.92716 14.7137 2.58663 12.9498Z" stroke="#C0C4D0" stroke-width="1.5"/>
<path d="M11.8488 10.3134C11.8488 11.6388 10.7879 12.7134 9.4791 12.7134C8.1703 12.7134 7.10938 11.6388 7.10938 10.3134C7.10938 8.98783 8.1703 7.91333 9.4791 7.91333C10.7879 7.91333 11.8488 8.98783 11.8488 10.3134Z" stroke="#C0C4D0" stroke-width="1.5"/>
</svg>
